<?xml version="1.0" standalone="no"?><!DOCTYPE svg PUBLIC "-//W3C//DTD SVG 1.1//EN" "http://www.w3.org/Graphics/SVG/1.1/DTD/svg11.dtd"><svg t="1591870221351" class="icon" viewBox="0 0 1309 1024" version="1.1" xmlns="http://www.w3.org/2000/svg" p-id="2212" xmlns:xlink="http://www.w3.org/1999/xlink" width="255.6640625" height="200"><defs><style type="text/css"></style></defs><path d="M1252.28603469 183.32327844a34.03524187 34.03524187 0 0 0-26.55342375-12.68316563H320.58886156l-32.36393812-112.46156062A38.28378937 38.28378937 0 0 0 252.90886906 32H66.75374656a34.7068875 34.7068875 0 0 0 0 69.413775h161.67911344l40.39244344 140.29579688a34.92556219 34.92556219 0 0 0 1.99931718 5.27944593l121.50534469 558.94957781a34.03524187 34.03524187 0 0 0 33.25425844 26.80333875h671.11436531a34.03524187 34.03524187 0 0 0 33.25425938-26.80333875l129.14335875-594.06257625a34.03524187 34.03524187 0 0 0-6.8101725-28.55274093zM1069.27046375 764.71830875H453.01234906l-114.35154-526.00771219h844.89871688z" fill="#33A3F4" p-id="2213"></path><path d="M479.08156437 941.11114344m-50.88885656 0a50.88885656 50.88885656 0 1 0 101.77771219 0 50.88885656 50.88885656 0 1 0-101.77771219 0Z" fill="#33A3F4" p-id="2214"></path><path d="M1068.59881906 941.11114344m-50.88885656 0a50.88885656 50.88885656 0 1 0 101.77771219 0 50.88885656 50.88885656 0 1 0-101.77771219 0Z" fill="#33A3F4" p-id="2215"></path></svg>