<?xml version="1.0" standalone="no"?><!DOCTYPE svg PUBLIC "-//W3C//DTD SVG 1.1//EN" "http://www.w3.org/Graphics/SVG/1.1/DTD/svg11.dtd"><svg t="1591870217656" class="icon" viewBox="0 0 1024 1024" version="1.1" xmlns="http://www.w3.org/2000/svg" p-id="2087" xmlns:xlink="http://www.w3.org/1999/xlink" width="200" height="200"><defs><style type="text/css"></style></defs><path d="M254.5718176426667 873.7309800675556c0 13.315251313777777 8.876834209185184 22.19208430933333 22.19208552296296 22.19208430933333h530.3908227602963c37.72654356859259 0 66.57625414162963-28.849710573037036 66.57625414162963-66.57625414162963V196.87239771022223c0-37.72654356859259-28.849710573037036-66.57625414162963-66.57625414162963-66.57625414162963H210.187649024c-37.72654356859259 0-66.57625414162963 28.849710573037036-66.57625414162963 66.57625414162963v632.4744125250371c0 13.315251313777777 8.876834209185184 22.19208430933333 22.19208430933333 22.19208552296296s22.19208430933333-8.876834209185184 22.19208430933333-22.19208552296296V196.87239771022223c0-13.315251313777777 8.876834209185184-22.19208430933333 22.19208552296296-22.19208430933333h596.967076901926c13.315251313777777 0 22.19208430933333 8.876834209185184 22.19208430933333 22.19208430933333v632.4744125250371c0 13.315251313777777-8.876834209185184 22.19208430933333-22.19208430933333 22.19208552296296H276.7639031656296c-13.315251313777777 0-22.19208430933333 8.876834209185184-22.19208552296296 22.19208430933333z" fill="#33A3F4" p-id="2088"></path><path d="M733.9208467342221 290.0791532657778c0-13.315251313777777-8.876834209185184-22.19208430933333-22.19208430933333-22.19208430933333s-22.19208430933333 8.876834209185184-22.19208552296296 22.19208430933333c0 106.52200686933334-82.1107134008889 195.2903453202963-184.194301952 195.2903453202963s-184.19430316562963-86.54913050548149-184.19430316562963-195.2903453202963c0-13.315251313777777-8.876834209185184-22.19208430933333-22.19208430933333-22.19208430933333s-22.19208430933333 8.876834209185184-22.19208430933333 22.19208430933333c0 130.9332991241481 102.08358976474075 239.67451393896295 228.57847178429628 239.67451393896295S733.9208467342221 421.0124523899259 733.9208467342221 290.0791532657778z" fill="#33A3F4" p-id="2089"></path></svg>