<?xml version="1.0" standalone="no"?><!DOCTYPE svg PUBLIC "-//W3C//DTD SVG 1.1//EN" "http://www.w3.org/Graphics/SVG/1.1/DTD/svg11.dtd"><svg t="1591870210655" class="icon" viewBox="0 0 1024 1024" version="1.1" xmlns="http://www.w3.org/2000/svg" p-id="1963" xmlns:xlink="http://www.w3.org/1999/xlink" width="200" height="200"><defs><style type="text/css"></style></defs><path d="M1007.072 542.48L512.016 79.152 16.96 541.12c-9.68 9.04-10.224 24.24-1.168 33.92 9.04 9.68 24.24 10.224 33.92 1.168l462.272-431.36L974.272 577.52a23.942 23.942 0 0 0 16.4 6.48c6.4 0 12.8-2.544 17.52-7.6 9.056-9.68 8.56-24.864-1.12-33.92zM856 552c-13.248 0-24 10.752-24 24v368H640V688H384v256H192V576c0-13.248-10.736-24-24-24s-24 10.752-24 24v416h288V736h160v256h288V576c0-13.248-10.752-24-24-24zM688 208h144v128c0 13.264 10.752 24 24 24s24-10.736 24-24V160H688c-13.248 0-24 10.736-24 24s10.752 24 24 24z" fill="#33A3F4" p-id="1964"></path></svg>