<?xml version="1.0" standalone="no"?><!DOCTYPE svg PUBLIC "-//W3C//DTD SVG 1.1//EN" "http://www.w3.org/Graphics/SVG/1.1/DTD/svg11.dtd"><svg t="1591870227701" class="icon" viewBox="0 0 1024 1024" version="1.1" xmlns="http://www.w3.org/2000/svg" p-id="2338" xmlns:xlink="http://www.w3.org/1999/xlink" width="200" height="200"><defs><style type="text/css"></style></defs><path d="M511.617024 51.206144c71.634944 0 136.685568 28.874752 183.642112 75.892736 46.952448 47.017984 75.747328 112.183296 75.747328 183.953408 0 70.946816-28.796928 136.11008-75.747328 183.128064-18.952192 18.982912-41.166848 35.467264-65.878016 47.828992 74.10688 18.98496 139.9808 56.098816 194.338816 106.426368 83.181568 75.8784 138.36288 182.306816 149.057536 301.094912 0.821248 11.538432-8.228864 22.253568-20.598784 23.078912-11.517952 1.675264-22.212608-7.419904-23.035904-19.779584-9.078784-107.251712-59.293696-203.761664-134.248448-272.222208-74.92608-68.460544-173.740032-110.548992-283.277312-110.548992-108.701696 0-208.351232 42.088448-282.454016 110.548992-74.940416 68.460544-125.169664 164.970496-134.234112 272.222208-0.823296 12.35968-11.532288 21.456896-23.887872 19.779584-11.517952-0.823296-20.5824-11.54048-19.759104-23.078912 10.708992-118.788096 65.875968-225.216512 148.23424-301.094912 55.166976-50.327552 121.055232-87.441408 194.336768-106.426368-23.873536-12.361728-46.116864-28.84608-65.052672-47.828992-46.938112-47.017984-75.763712-112.183296-75.763712-183.128064 0-71.770112 28.8256-136.935424 75.763712-183.953408C375.738368 80.080896 440.79104 51.206144 511.617024 51.206144L511.617024 51.206144zM663.965696 158.44352c-38.69696-39.585792-92.23168-63.514624-152.348672-63.514624-59.293696 0-112.81408 23.928832-152.348672 63.514624-38.69696 38.776832-62.584832 92.387328-62.584832 152.608768 0 59.394048 23.887872 113.006592 62.584832 152.60672 39.534592 38.762496 93.054976 62.691328 152.348672 62.691328 60.116992 0 113.651712-23.928832 152.348672-62.691328 39.522304-39.600128 63.408128-93.212672 63.408128-152.60672C727.373824 250.832896 703.488 197.220352 663.965696 158.44352L663.965696 158.44352z" fill="#33A3F4" p-id="2339"></path></svg>